<svg xmlns="http://www.w3.org/2000/svg" xmlns:xlink="http://www.w3.org/1999/xlink" width="500" zoomAndPan="magnify" viewBox="0 0 375 149.999998" height="200" preserveAspectRatio="xMidYMid meet" version="1.0"><defs><g/><clipPath id="aaf809bd8c"><rect x="0" width="343" y="0" height="140"/></clipPath></defs><rect x="-37.5" width="450" fill="#ffffff" y="-15" height="179.999997" fill-opacity="1"/><rect x="-37.5" width="450" fill="#ffffff" y="-15" height="179.999997" fill-opacity="1"/><g transform="matrix(1, 0, 0, 1, 20, 5)"><g clip-path="url(#aaf809bd8c)"><g fill="#000000" fill-opacity="1"><g transform="translate(1.026213, 107.987981)"><g><path d="M 47.019531 -78.554688 L 57.183594 -78.554688 L 57.183594 -25.992188 C 57.183594 -20.910156 55.933594 -16.289062 53.429688 -12.128906 C 50.925781 -7.972656 47.574219 -4.640625 43.378906 -2.136719 C 39.179688 0.367188 34.542969 1.617188 29.457031 1.617188 C 24.453125 1.617188 19.851562 0.386719 15.652344 -2.078125 C 11.457031 -4.542969 8.085938 -7.875 5.546875 -12.070312 C 3.003906 -16.269531 1.734375 -20.949219 1.734375 -26.109375 C 1.734375 -31.035156 2.945312 -35.601562 5.371094 -39.796875 C 7.796875 -43.996094 11.109375 -47.363281 15.308594 -49.90625 C 19.503906 -52.449219 24.222656 -53.71875 29.457031 -53.71875 C 32.539062 -53.71875 35.582031 -53.199219 38.585938 -52.160156 C 41.589844 -51.117188 44.398438 -49.558594 47.019531 -47.480469 Z M 29.457031 -8.546875 C 32.691406 -8.546875 35.640625 -9.339844 38.296875 -10.917969 C 40.953125 -12.496094 43.070312 -14.613281 44.648438 -17.269531 C 46.226562 -19.925781 47.019531 -22.835938 47.019531 -25.992188 C 47.019531 -29.226562 46.226562 -32.171875 44.648438 -34.832031 C 43.070312 -37.488281 40.953125 -39.605469 38.296875 -41.183594 C 35.640625 -42.761719 32.691406 -43.550781 29.457031 -43.550781 C 26.222656 -43.550781 23.277344 -42.761719 20.621094 -41.183594 C 17.964844 -39.605469 15.847656 -37.488281 14.265625 -34.832031 C 12.6875 -32.171875 11.898438 -29.226562 11.898438 -25.992188 C 11.898438 -22.835938 12.6875 -19.925781 14.265625 -17.269531 C 15.847656 -14.613281 17.964844 -12.496094 20.621094 -10.917969 C 23.277344 -9.339844 26.222656 -8.546875 29.457031 -8.546875 Z M 29.457031 -8.546875 "/></g></g></g><g fill="#000000" fill-opacity="1"><g transform="translate(65.822154, 107.987981)"><g><path d="M 3.464844 -51.984375 L 13.632812 -51.984375 L 13.632812 0 L 3.464844 0 Z M 3.464844 -51.984375 "/></g></g></g><g fill="#000000" fill-opacity="1"><g transform="translate(85.688603, 107.987981)"><g><path d="M 57.183594 -0.117188 C 57.183594 2.65625 56.585938 5.507812 55.394531 8.433594 C 54.199219 11.359375 52.449219 14.113281 50.136719 16.691406 C 47.828125 19.273438 44.9375 21.351562 41.472656 22.929688 C 38.007812 24.511719 34.003906 25.300781 29.457031 25.300781 L 21.371094 25.300781 L 21.371094 15.132812 L 29.457031 15.132812 C 33.078125 15.132812 36.023438 14.5 38.296875 13.226562 C 40.566406 11.957031 42.339844 10.417969 43.609375 8.605469 C 44.878906 6.796875 45.765625 5.082031 46.265625 3.464844 C 46.765625 1.847656 47.019531 0.65625 47.019531 -0.117188 Z M 57.183594 -26.339844 C 57.183594 -21.640625 56.046875 -17.15625 53.777344 -12.878906 C 51.503906 -8.605469 48.308594 -5.121094 44.1875 -2.425781 C 40.066406 0.269531 35.15625 1.617188 29.457031 1.617188 C 24.375 1.617188 19.734375 0.367188 15.539062 -2.136719 C 11.339844 -4.640625 7.992188 -7.972656 5.488281 -12.128906 C 2.984375 -16.289062 1.734375 -20.910156 1.734375 -25.992188 C 1.734375 -31.152344 3.003906 -35.832031 5.546875 -40.027344 C 8.085938 -44.226562 11.457031 -47.558594 15.652344 -50.019531 C 19.851562 -52.484375 24.414062 -53.71875 29.34375 -53.71875 C 30.960938 -53.71875 32.578125 -53.601562 34.195312 -53.371094 C 35.582031 -54.679688 36.5625 -55.605469 37.140625 -56.144531 C 37.71875 -56.683594 38.140625 -57.085938 38.410156 -57.355469 C 38.679688 -57.625 39.105469 -58.03125 39.683594 -58.570312 C 40.257812 -59.109375 41.242188 -60.070312 42.628906 -61.457031 C 43.78125 -60.226562 44.589844 -59.378906 45.054688 -58.917969 C 45.515625 -58.453125 45.863281 -58.089844 46.09375 -57.820312 C 46.324219 -57.550781 46.691406 -57.164062 47.191406 -56.664062 C 47.691406 -56.164062 48.519531 -55.296875 49.675781 -54.066406 L 44.589844 -49.210938 C 48.90625 -46.363281 52.082031 -42.917969 54.121094 -38.875 C 56.164062 -34.832031 57.183594 -30.652344 57.183594 -26.339844 Z M 29.457031 -8.546875 C 32.691406 -8.546875 35.640625 -9.339844 38.296875 -10.917969 C 40.953125 -12.496094 43.070312 -14.613281 44.648438 -17.269531 C 46.226562 -19.925781 47.019531 -22.835938 47.019531 -25.992188 C 47.019531 -29.226562 46.226562 -32.171875 44.648438 -34.832031 C 43.070312 -37.488281 40.953125 -39.605469 38.296875 -41.183594 C 35.640625 -42.761719 32.691406 -43.550781 29.457031 -43.550781 C 26.222656 -43.550781 23.277344 -42.761719 20.621094 -41.183594 C 17.964844 -39.605469 15.847656 -37.488281 14.265625 -34.832031 C 12.6875 -32.171875 11.898438 -29.226562 11.898438 -25.992188 C 11.898438 -22.835938 12.6875 -19.925781 14.265625 -17.269531 C 15.847656 -14.613281 17.964844 -12.496094 20.621094 -10.917969 C 23.277344 -9.339844 26.222656 -8.546875 29.457031 -8.546875 Z M 29.457031 -8.546875 "/></g></g></g><g fill="#000000" fill-opacity="1"><g transform="translate(148.405136, 107.987981)"><g><path d="M 3.464844 -51.984375 L 13.632812 -51.984375 L 13.632812 0 L 3.464844 0 Z M 3.464844 -51.984375 "/></g></g></g><g fill="#000000" fill-opacity="1"><g transform="translate(170.928596, 107.987981)"><g><path d="M 54.179688 0 L 44.015625 0 L 44.015625 -28.417969 C 44.015625 -31.269531 43.320312 -33.828125 41.933594 -36.101562 C 40.546875 -38.371094 38.71875 -40.183594 36.449219 -41.53125 C 34.175781 -42.878906 31.613281 -43.550781 28.765625 -43.550781 C 25.992188 -43.550781 23.46875 -42.878906 21.199219 -41.53125 C 18.925781 -40.183594 17.097656 -38.371094 15.710938 -36.101562 C 14.324219 -33.828125 13.632812 -31.269531 13.632812 -28.417969 L 13.632812 0 L 3.464844 0 L 3.464844 -28.417969 C 3.464844 -33.117188 4.601562 -37.371094 6.875 -41.183594 C 9.144531 -44.996094 12.207031 -48.039062 16.058594 -50.308594 C 19.910156 -52.582031 24.144531 -53.71875 28.765625 -53.71875 C 33.464844 -53.71875 37.71875 -52.582031 41.53125 -50.308594 C 45.34375 -48.039062 48.402344 -44.996094 50.714844 -41.183594 C 53.023438 -37.371094 54.179688 -33.117188 54.179688 -28.417969 Z M 54.179688 0 "/></g></g></g><g fill="#000000" fill-opacity="1"><g transform="translate(230.642157, 107.987981)"><g><path d="M 29.34375 -8.546875 L 29.457031 -8.546875 C 34.925781 -8.546875 39.433594 -10.667969 42.972656 -14.902344 L 51.753906 -9.703125 C 48.90625 -5.777344 45.554688 -2.90625 41.703125 -1.097656 C 37.851562 0.710938 33.925781 1.617188 29.921875 1.617188 C 25.144531 1.617188 20.601562 0.480469 16.289062 -1.789062 C 11.976562 -4.0625 8.472656 -7.277344 5.777344 -11.4375 C 3.082031 -15.59375 1.734375 -20.449219 1.734375 -25.992188 C 1.734375 -31.847656 3.101562 -36.832031 5.832031 -40.953125 C 8.566406 -45.074219 12.089844 -48.230469 16.402344 -50.425781 C 20.71875 -52.621094 25.222656 -53.71875 29.921875 -53.71875 C 33.539062 -53.71875 37.042969 -53.042969 40.433594 -51.695312 C 43.820312 -50.347656 46.863281 -48.269531 49.558594 -45.457031 C 52.253906 -42.648438 54.296875 -39.085938 55.683594 -34.773438 L 17.789062 -12.9375 C 21.101562 -10.011719 24.953125 -8.546875 29.34375 -8.546875 Z M 11.785156 -26.339844 C 11.785156 -24.722656 12.015625 -23.105469 12.476562 -21.488281 C 15.710938 -23.414062 18.253906 -24.894531 20.101562 -25.933594 C 21.949219 -26.972656 23.394531 -27.800781 24.433594 -28.417969 C 25.472656 -29.035156 26.359375 -29.554688 27.089844 -29.976562 C 27.820312 -30.402344 28.707031 -30.921875 29.746094 -31.539062 C 30.785156 -32.152344 32.25 -33 34.136719 -34.078125 C 36.023438 -35.15625 38.585938 -36.621094 41.820312 -38.46875 C 40.046875 -40.242188 38.101562 -41.550781 35.984375 -42.398438 C 33.867188 -43.242188 31.769531 -43.667969 29.6875 -43.667969 C 26.6875 -43.667969 23.816406 -42.917969 21.082031 -41.414062 C 18.347656 -39.914062 16.117188 -37.851562 14.382812 -35.234375 C 12.648438 -32.617188 11.785156 -29.652344 11.785156 -26.339844 Z M 11.785156 -26.339844 "/></g></g></g><g fill="#000000" fill-opacity="1"><g transform="translate(281.113573, 107.987981)"><g><path d="M 57.066406 0 L 44.359375 0 C 42.359375 -2.617188 40.875 -4.582031 39.914062 -5.890625 C 38.949219 -7.199219 38.21875 -8.183594 37.71875 -8.835938 C 37.21875 -9.492188 36.699219 -10.164062 36.160156 -10.859375 C 35.621094 -11.550781 34.867188 -12.535156 33.90625 -13.804688 C 32.941406 -15.074219 31.460938 -17.019531 29.457031 -19.640625 L 14.441406 0 L 1.734375 0 C 4.121094 -3.15625 5.988281 -5.601562 7.335938 -7.335938 C 8.683594 -9.070312 9.722656 -10.4375 10.453125 -11.4375 C 11.1875 -12.4375 11.820312 -13.304688 12.359375 -14.035156 C 12.898438 -14.769531 13.535156 -15.632812 14.265625 -16.636719 C 15 -17.636719 16.039062 -19.023438 17.386719 -20.792969 C 18.734375 -22.566406 20.601562 -24.992188 22.988281 -28.070312 L 4.851562 -51.984375 L 17.558594 -51.984375 L 29.457031 -36.503906 L 41.242188 -51.984375 L 53.949219 -51.984375 L 35.8125 -28.070312 Z M 57.066406 0 "/></g></g></g></g></g></svg>